<svg xmlns="http://www.w3.org/2000/svg" viewBox="0 0 56.83 77.24">
  <defs>
    <style>.cls-1{fill:#222021;}.cls-2{fill:#8759c1;}.cls-3{fill:#36b247;}.cls-4{fill:#458aed;}.cls-5{fill:#faa71a;}</style>
  </defs><title>Asset 1</title>
  <g id="Layer_2" data-name="Layer 2">
    <g id="V3b">
      <path class="cls-1" d="M7.93,77.05V65.9h4.74a8.15,8.15,0,0,1,2.6.3,2.59,2.59,0,0,1,1.29,1.07A3.2,3.2,0,0,1,17.05,69a2.92,2.92,0,0,1-.74,2.07,3.48,3.48,0,0,1-2.2,1,5.38,5.38,0,0,1,1.2.94,12.39,12.39,0,0,1,1.29,1.81L18,77.05h-2.7l-1.62-2.42A15.39,15.39,0,0,0,12.45,73a1.61,1.61,0,0,0-.68-.46,3.47,3.47,0,0,0-1.13-.13h-.46v4.65Zm2.25-6.43h1.67a8.58,8.58,0,0,0,2-.14A1.2,1.2,0,0,0,14.5,70a1.39,1.39,0,0,0,.23-.84,1.32,1.32,0,0,0-.3-.9,1.37,1.37,0,0,0-.85-.44c-.18,0-.73,0-1.64,0H10.18Z"/>
      <path class="cls-1" d="M23.84,74.48l2.13.36a3.5,3.5,0,0,1-1.3,1.78,3.8,3.8,0,0,1-2.22.62,3.63,3.63,0,0,1-3.12-1.38,4.62,4.62,0,0,1-.8-2.78,4.47,4.47,0,0,1,1-3.15,3.46,3.46,0,0,1,2.66-1.14A3.58,3.58,0,0,1,25.08,70a5.09,5.09,0,0,1,1,3.45v.2H20.72a2.17,2.17,0,0,0,.52,1.48,1.63,1.63,0,0,0,1.23.53,1.33,1.33,0,0,0,.85-.27A1.74,1.74,0,0,0,23.84,74.48ZM24,72.32a2.11,2.11,0,0,0-.48-1.41,1.55,1.55,0,0,0-2.27,0,2,2,0,0,0-.45,1.35v0Z"/>
      <path class="cls-1" d="M27.82,77.05V65.9H30V77.05Z"/>
      <path class="cls-1" d="M39.3,73l2.18.7a4.88,4.88,0,0,1-1.67,2.71,5.27,5.27,0,0,1-6.61-.63,5.78,5.78,0,0,1-1.43-4.15,6.1,6.1,0,0,1,1.44-4.33A4.93,4.93,0,0,1,37,65.71a4.66,4.66,0,0,1,3.32,1.21A4.34,4.34,0,0,1,41.45,69l-2.23.53a2.29,2.29,0,0,0-2.35-1.87,2.55,2.55,0,0,0-2,.89,4.37,4.37,0,0,0-.77,2.88,4.66,4.66,0,0,0,.76,3,2.46,2.46,0,0,0,2,.9,2.26,2.26,0,0,0,1.54-.57A3.34,3.34,0,0,0,39.3,73Z"/>
      <path class="cls-1" d="M48.71,77.05V75.84a2.94,2.94,0,0,1-1.16,1,3.22,3.22,0,0,1-1.51.38,2.93,2.93,0,0,1-1.46-.36,2.12,2.12,0,0,1-.94-1,4.57,4.57,0,0,1-.29-1.79V69h2.14v3.71a10.21,10.21,0,0,0,.12,2.09,1.1,1.1,0,0,0,.43.6,1.3,1.3,0,0,0,.79.23,1.69,1.69,0,0,0,1-.3,1.48,1.48,0,0,0,.59-.75,8.43,8.43,0,0,0,.16-2.18V69H50.7v8.07Z"/>
      <path class="cls-2" d="M9.16,8.08h0a1.5,1.5,0,0,1-1.49-1.5,4.06,4.06,0,0,1,4.07-4.06h0a1.5,1.5,0,0,1,0,3h0a1.06,1.06,0,0,0-.75.31,1,1,0,0,0-.32.76A1.5,1.5,0,0,1,9.16,8.08Z"/>
      <path class="cls-2" d="M28.5,5.58h0a4,4,0,0,1-2.88-1.2,4.09,4.09,0,0,1-1.18-2.89A1.5,1.5,0,0,1,25.94,0h0a1.51,1.51,0,0,1,1.5,1.51,1.07,1.07,0,0,0,1.07,1.07,1.5,1.5,0,0,1,0,3Z"/>
      <path class="cls-2" d="M23.37,5.56h0a1.5,1.5,0,0,1,0-3h0a1.06,1.06,0,0,0,.75-.31,1,1,0,0,0,.32-.76A1.5,1.5,0,0,1,25.94,0h0a1.51,1.51,0,0,1,1.5,1.51,4.06,4.06,0,0,1-4.07,4.05Z"/>
      <path class="cls-2" d="M45.73,8.21h0a1.49,1.49,0,0,1-1.49-1.5,1.09,1.09,0,0,0-1.07-1.08,1.5,1.5,0,0,1,0-3h0a4.08,4.08,0,0,1,4.06,4.09A1.5,1.5,0,0,1,45.73,8.21Z"/>
      <path class="cls-2" d="M23.36,5.56h0l-11.62,0a1.5,1.5,0,0,1,0-3h0l11.62,0a1.5,1.5,0,0,1,0,3Z"/>
      <path class="cls-2" d="M43.17,5.63h0l-14.66,0a1.5,1.5,0,1,1,0-3h0l14.66,0a1.5,1.5,0,1,1,0,3Z"/>
      <path class="cls-2" d="M45.62,37.39h0a1.5,1.5,0,0,1-1.5-1.5l.11-29.18a1.5,1.5,0,0,1,1.5-1.5h0a1.51,1.51,0,0,1,1.5,1.51L47.12,35.9A1.49,1.49,0,0,1,45.62,37.39Z"/>
      <path class="cls-3" d="M45,54.77h0a1.5,1.5,0,1,1,0-3h0a1.08,1.08,0,0,0,.76-.31,1.07,1.07,0,0,0,.31-.76,1.51,1.51,0,0,1,1.5-1.49h0a1.49,1.49,0,0,1,1.49,1.5A4.06,4.06,0,0,1,45,54.77Z"/>
      <path class="cls-3" d="M30.79,57.29h0a1.51,1.51,0,0,1-1.5-1.51A1.06,1.06,0,0,0,29,55a1,1,0,0,0-.75-.32,1.5,1.5,0,1,1,0-3h0a4.06,4.06,0,0,1,4.05,4.09A1.5,1.5,0,0,1,30.79,57.29Z"/>
      <path class="cls-3" d="M30.79,57.29h0a1.51,1.51,0,0,1-1.5-1.51,4.08,4.08,0,0,1,4.07-4.05h0a1.5,1.5,0,0,1,0,3h0a1.07,1.07,0,0,0-1.07,1.07A1.5,1.5,0,0,1,30.79,57.29Z"/>
      <path class="cls-3" d="M13.57,54.66h0A4.1,4.1,0,0,1,9.5,50.57,1.5,1.5,0,0,1,11,49.08h0a1.48,1.48,0,0,1,1.49,1.5,1.07,1.07,0,0,0,.31.76,1.11,1.11,0,0,0,.76.32,1.5,1.5,0,0,1,0,3Z"/>
      <path class="cls-3" d="M45,54.77h0l-11.62,0a1.5,1.5,0,1,1,0-3h0l11.62,0a1.5,1.5,0,0,1,0,3Z"/>
      <path class="cls-3" d="M28.23,54.71h0l-14.66-.05a1.5,1.5,0,0,1,0-3h0l14.67.05a1.5,1.5,0,0,1,0,3Z"/>
      <path class="cls-3" d="M11,52.08h0a1.51,1.51,0,0,1-1.5-1.51l.11-29.18a1.49,1.49,0,0,1,1.5-1.49h0a1.5,1.5,0,0,1,1.49,1.5L12.5,50.58A1.5,1.5,0,0,1,11,52.08Z"/>
      <path class="cls-4" d="M6.58,50.07h0A4.08,4.08,0,0,1,2.52,46,1.5,1.5,0,0,1,4,44.49H4A1.51,1.51,0,0,1,5.52,46a1.07,1.07,0,0,0,1.07,1.07,1.5,1.5,0,0,1,0,3Z"/>
      <path class="cls-4" d="M1.51,33.29h0a1.5,1.5,0,0,1,0-3h0A1.06,1.06,0,0,0,2.26,30a1,1,0,0,0,.32-.76,1.5,1.5,0,0,1,1.5-1.49h0a1.5,1.5,0,0,1,1.5,1.5,4,4,0,0,1-1.2,2.88A4.06,4.06,0,0,1,1.51,33.29Z"/>
      <path class="cls-4" d="M4.06,35.87h0a1.5,1.5,0,0,1-1.5-1.5A1.08,1.08,0,0,0,1.5,33.29a1.5,1.5,0,0,1,0-3h0a4,4,0,0,1,2.88,1.2,4,4,0,0,1,1.18,2.89A1.5,1.5,0,0,1,4.06,35.87Z"/>
      <path class="cls-4" d="M4.13,16.06h0a1.5,1.5,0,0,1-1.5-1.5A4.08,4.08,0,0,1,6.7,10.5h0a1.5,1.5,0,0,1,0,3h0a1.06,1.06,0,0,0-.75.31,1.07,1.07,0,0,0-.32.76A1.49,1.49,0,0,1,4.13,16.06Z"/>
      <path class="cls-4" d="M4,47.49H4A1.5,1.5,0,0,1,2.52,46l0-11.61a1.5,1.5,0,0,1,1.5-1.5h0a1.5,1.5,0,0,1,1.49,1.51L5.52,46A1.5,1.5,0,0,1,4,47.49Z"/>
      <path class="cls-4" d="M4.08,30.73h0a1.5,1.5,0,0,1-1.49-1.51l0-14.66a1.51,1.51,0,0,1,1.5-1.5h0a1.5,1.5,0,0,1,1.49,1.51l0,14.66A1.5,1.5,0,0,1,4.08,30.73Z"/>
      <path class="cls-4" d="M35.89,13.61h0L6.71,13.5a1.5,1.5,0,0,1,0-3h0l29.18.11a1.5,1.5,0,0,1,0,3Z"/>
      <path class="cls-5" d="M52.81,12.24h0a1.49,1.49,0,0,1-1.49-1.51,1.07,1.07,0,0,0-1.07-1.07,1.5,1.5,0,1,1,0-3h0a4,4,0,0,1,2.87,1.2,4.06,4.06,0,0,1,1.19,2.89A1.51,1.51,0,0,1,52.81,12.24Z"/>
      <path class="cls-5" d="M52.75,29h0a1.49,1.49,0,0,1-1.49-1.5,4.06,4.06,0,0,1,4.07-4.06h0a1.5,1.5,0,1,1,0,3h0a1.06,1.06,0,0,0-1.07,1.07A1.51,1.51,0,0,1,52.75,29Z"/>
      <path class="cls-5" d="M55.33,26.44h0a4.09,4.09,0,0,1-4.06-4.09,1.51,1.51,0,0,1,1.5-1.49h0a1.49,1.49,0,0,1,1.49,1.5,1.07,1.07,0,0,0,1.07,1.08,1.5,1.5,0,1,1,0,3Z"/>
      <path class="cls-5" d="M50.12,46.23h0a1.5,1.5,0,1,1,0-3h0a1.08,1.08,0,0,0,.76-.31,1.07,1.07,0,0,0,.31-.76,1.5,1.5,0,0,1,1.5-1.49h0a1.49,1.49,0,0,1,1.49,1.5,4.06,4.06,0,0,1-4.07,4.06Z"/>
      <path class="cls-5" d="M52.76,23.86h0a1.51,1.51,0,0,1-1.5-1.51l.05-11.62a1.5,1.5,0,0,1,1.5-1.49h0a1.51,1.51,0,0,1,1.5,1.51l-.05,11.61A1.5,1.5,0,0,1,52.76,23.86Z"/>
      <path class="cls-5" d="M52.69,43.67h0a1.51,1.51,0,0,1-1.5-1.51l.06-14.66a1.5,1.5,0,0,1,1.5-1.5h0a1.51,1.51,0,0,1,1.5,1.51l-.06,14.66A1.5,1.5,0,0,1,52.69,43.67Z"/>
      <path class="cls-5" d="M50.11,46.23h0l-29.19-.11a1.5,1.5,0,0,1,0-3h0l29.18.11a1.5,1.5,0,0,1,0,3Z"/>
    </g>
  </g>
</svg>