<svg xmlns="http://www.w3.org/2000/svg" viewBox="0 0 198.26 57.29"><defs><style>.cls-1{fill:#222021;}.cls-2{fill:#8759c1;}.cls-3{fill:#36b247;}.cls-4{fill:#458aed;}.cls-5{fill:#faa71a;}</style></defs><title>Asset 3</title><g id="Layer_2" data-name="Layer 2"><g id="V3b"><path class="cls-1" d="M65.1,46V11.29H79.85a25.41,25.41,0,0,1,8.09.93,8,8,0,0,1,4,3.33A10,10,0,0,1,93.49,21a9.24,9.24,0,0,1-2.29,6.45,11,11,0,0,1-6.87,3.21,16.68,16.68,0,0,1,3.75,2.91,39.23,39.23,0,0,1,4,5.64L96.31,46H87.93l-5.07-7.55a49.2,49.2,0,0,0-3.69-5.1,5.38,5.38,0,0,0-2.11-1.45,11.58,11.58,0,0,0-3.53-.39H72.11V46Zm7-20H77.3a26.24,26.24,0,0,0,6.29-.43,3.75,3.75,0,0,0,2-1.46,4.58,4.58,0,0,0,.71-2.61,4.18,4.18,0,0,0-.93-2.83,4.32,4.32,0,0,0-2.64-1.36c-.57-.08-2.28-.12-5.12-.12H72.11Z"/><path class="cls-1" d="M114.62,38l6.63,1.11a11,11,0,0,1-4,5.56,11.86,11.86,0,0,1-6.9,1.9q-6.57,0-9.71-4.28a14.39,14.39,0,0,1-2.49-8.67q0-6.25,3.27-9.79a10.76,10.76,0,0,1,8.26-3.54A11.18,11.18,0,0,1,118.5,24q3.1,3.56,3.1,10.73v.64H104.93a6.75,6.75,0,0,0,1.61,4.6,5,5,0,0,0,3.84,1.65,4.13,4.13,0,0,0,2.63-.85A5.34,5.34,0,0,0,114.62,38Zm.38-6.73a6.41,6.41,0,0,0-1.5-4.39,4.57,4.57,0,0,0-3.45-1.5,4.62,4.62,0,0,0-3.6,1.58,6.12,6.12,0,0,0-1.4,4.22v.09Z"/><path class="cls-1" d="M127,46V11.29h6.66V46Z"/><path class="cls-1" d="M162.76,33.24l6.8,2.15q-1.58,5.69-5.2,8.45a16.34,16.34,0,0,1-20.59-2q-4.46-4.73-4.45-12.92,0-8.65,4.47-13.46a15.33,15.33,0,0,1,11.77-4.79,14.43,14.43,0,0,1,10.35,3.76,13.75,13.75,0,0,1,3.55,6.39l-6.94,1.66a7.17,7.17,0,0,0-7.31-5.82,7.89,7.89,0,0,0-6.27,2.77c-1.6,1.84-2.4,4.84-2.4,9q0,6.59,2.37,9.38a7.68,7.68,0,0,0,6.15,2.79,7,7,0,0,0,4.81-1.77A10.34,10.34,0,0,0,162.76,33.24Z"/><path class="cls-1" d="M192.08,46V42.24a9.67,9.67,0,0,1-3.62,3.17,10.14,10.14,0,0,1-4.72,1.16,9.29,9.29,0,0,1-4.55-1.11,6.58,6.58,0,0,1-2.91-3.13,13.91,13.91,0,0,1-.9-5.56V20.85H182V32.41a32.65,32.65,0,0,0,.36,6.5,3.58,3.58,0,0,0,1.34,1.9,4.16,4.16,0,0,0,2.46.69,5.27,5.27,0,0,0,3.06-.93,4.73,4.73,0,0,0,1.84-2.32c.34-.93.5-3.19.5-6.79V20.85h6.66V46Z"/><path class="cls-2" d="M47.2,6.42a4,4,0,0,0-3.73-3.75,1.36,1.36,0,0,0-.3,0l-14.66,0h0a1,1,0,0,1-.76-.32,1.06,1.06,0,0,1-.31-.75A1.5,1.5,0,0,0,26,0h0a1.5,1.5,0,0,0-1.5,1.49,1.07,1.07,0,0,1-1.07,1.07h0l-11.61,0h0A4.06,4.06,0,0,0,7.66,6.58a1.5,1.5,0,0,0,1.49,1.5h0a1.5,1.5,0,0,0,1.5-1.49A1,1,0,0,1,11,5.83a1.06,1.06,0,0,1,.75-.31h0l11.62,0h0a4.08,4.08,0,0,0,2.56-.93,4,4,0,0,0,2.53,1h0l14.66,0a1.09,1.09,0,0,1,1.07,1.08l-.11,29.18a1.5,1.5,0,0,0,1.5,1.5h0a1.49,1.49,0,0,0,1.5-1.49l.11-29.18A1.45,1.45,0,0,0,47.2,6.42Z"/><path class="cls-3" d="M47.58,49.21h0a1.51,1.51,0,0,0-1.5,1.49,1.07,1.07,0,0,1-.31.76,1.08,1.08,0,0,1-.76.31h0l-11.62,0h0a4.07,4.07,0,0,0-2.56.93,4,4,0,0,0-2.26-.92,1.53,1.53,0,0,0-.3,0l-14.67-.05a1.09,1.09,0,0,1-1.07-1.08l.11-29.18a1.5,1.5,0,0,0-1.49-1.5h0a1.49,1.49,0,0,0-1.5,1.49L9.5,50.57a1.45,1.45,0,0,0,0,.3,4.07,4.07,0,0,0,3.73,3.76,1.45,1.45,0,0,0,.3,0l14.66.05a1.07,1.07,0,0,1,1.07,1.08,1.5,1.5,0,0,0,1.5,1.5h0a1.5,1.5,0,0,0,1.5-1.49,1.07,1.07,0,0,1,.32-.76,1.06,1.06,0,0,1,.75-.31h0l11.62,0h0a4.06,4.06,0,0,0,4.07-4.06A1.49,1.49,0,0,0,47.58,49.21Z"/><path class="cls-4" d="M35.9,10.61,6.72,10.5h0a4.07,4.07,0,0,0-4,3.76.61.61,0,0,0,0,.14s0,.1,0,.16h0l0,14.66a1,1,0,0,1-.32.76,1.06,1.06,0,0,1-.75.31h0a1.5,1.5,0,0,0,0,3,1.08,1.08,0,0,1,1.07,1.08L2.52,46h0v0a4.06,4.06,0,0,0,4.06,4.06h0a1.5,1.5,0,0,0,0-3,1,1,0,0,1-.76-.32A1.06,1.06,0,0,1,5.52,46h0l0-11.62a1.55,1.55,0,0,0,0-.31,4,4,0,0,0-.9-2.27,4,4,0,0,0,1-2.57l0-14.66h0A1.08,1.08,0,0,1,6.7,13.5h0l29.18.11h0a1.5,1.5,0,0,0,0-3Z"/><path class="cls-5" d="M55.33,23.44a1.08,1.08,0,0,1-1.07-1.07h0l.05-11.62a1.55,1.55,0,0,0,0-.31,4.07,4.07,0,0,0-4-3.78h0a1.5,1.5,0,1,0,0,3,1.07,1.07,0,0,1,1.07,1.08l-.05,11.61h0v0a4,4,0,0,0,.92,2.55,4,4,0,0,0-.94,2.57l-.06,14.66a1.07,1.07,0,0,1-.31.76,1.08,1.08,0,0,1-.76.31h0l-29.18-.11h0a1.5,1.5,0,0,0,0,3l29.19.11h0a4.06,4.06,0,0,0,4.07-4.06l.06-14.66a1.06,1.06,0,0,1,1.07-1.07h0a1.5,1.5,0,1,0,0-3Z"/></g></g></svg>